<?xml version="1.0" standalone="no"?>
<svg viewBox="0 0 200 200" xmlns="http://www.w3.org/2000/svg">
  <path fill="#1859D1" d="M44.9,-70.6C59.2,-69.6,72.5,-59.5,80.7,-46.3C89,-33,92.2,-16.5,91.9,-0.2C91.6,16.2,87.8,32.3,78.6,43.9C69.4,55.4,54.7,62.3,40.7,65.9C26.7,69.4,13.3,69.6,-0.3,70.2C-14,70.7,-28,71.7,-41.6,67.9C-55.2,64.1,-68.4,55.6,-75.1,43.5C-81.8,31.4,-82.1,15.7,-77.4,2.8C-72.6,-10.2,-62.7,-20.3,-56.1,-32.7C-49.5,-45.1,-46.2,-59.6,-37.4,-63.8C-28.6,-67.9,-14.3,-61.7,0.5,-62.6C15.3,-63.5,30.7,-71.6,44.9,-70.6Z" transform="translate(100 100)" />
</svg>
